<mxfile host="Electron" modified="2024-06-17T05:48:11.657Z" agent="Mozilla/5.0 (Windows NT 10.0; Win64; x64) AppleWebKit/537.36 (KHTML, like Gecko) draw.io/24.5.1 Chrome/124.0.6367.207 Electron/30.0.6 Safari/537.36" etag="iipgubJq3x4tRmtkht8R" version="24.5.1" type="device">
  <diagram name="Page-1" id="cBRlXcdep8F54kvEbsWx">
    <mxGraphModel dx="493" dy="292" grid="1" gridSize="10" guides="1" tooltips="1" connect="1" arrows="1" fold="1" page="1" pageScale="1" pageWidth="850" pageHeight="1100" math="0" shadow="0">
      <root>
        <mxCell id="0" />
        <mxCell id="1" parent="0" />
        <mxCell id="qRsQ-N_CKGC5OnTErh9l-182" value="" style="html=1;dashed=0;whiteSpace=wrap;fontStyle=1" parent="1" vertex="1">
          <mxGeometry x="70" y="110" width="780" height="500" as="geometry" />
        </mxCell>
        <mxCell id="qRsQ-N_CKGC5OnTErh9l-3" value="student" style="shape=associativeEntity;whiteSpace=wrap;html=1;align=center;fontStyle=1" parent="1" vertex="1">
          <mxGeometry x="344.04" y="332.66" width="85" height="27.66" as="geometry" />
        </mxCell>
        <mxCell id="qRsQ-N_CKGC5OnTErh9l-4" value="host_supervisor" style="rounded=1;arcSize=10;whiteSpace=wrap;html=1;align=center;fontStyle=1" parent="1" vertex="1">
          <mxGeometry x="710" y="202.33999999999995" width="100" height="20" as="geometry" />
        </mxCell>
        <mxCell id="qRsQ-N_CKGC5OnTErh9l-5" value="report_supervisor" style="rounded=1;arcSize=10;whiteSpace=wrap;html=1;align=center;fontStyle=1" parent="1" vertex="1">
          <mxGeometry x="432.83" y="397.65999999999997" width="100" height="20" as="geometry" />
        </mxCell>
        <mxCell id="qRsQ-N_CKGC5OnTErh9l-6" value="coordinator" style="rounded=1;arcSize=10;whiteSpace=wrap;html=1;align=center;fontStyle=1" parent="1" vertex="1">
          <mxGeometry x="340" y="487.65999999999997" width="70" height="23.33" as="geometry" />
        </mxCell>
        <mxCell id="qRsQ-N_CKGC5OnTErh9l-7" value="visiting_supervisor" style="rounded=1;arcSize=10;whiteSpace=wrap;html=1;align=center;fontStyle=1" parent="1" vertex="1">
          <mxGeometry x="160" y="332.66" width="120" height="20" as="geometry" />
        </mxCell>
        <mxCell id="qRsQ-N_CKGC5OnTErh9l-8" value="Logbook" style="rounded=1;arcSize=10;whiteSpace=wrap;html=1;align=center;fontStyle=1" parent="1" vertex="1">
          <mxGeometry x="290" y="196.17" width="70" height="20" as="geometry" />
        </mxCell>
        <mxCell id="qRsQ-N_CKGC5OnTErh9l-9" value="weeks" style="rounded=1;arcSize=10;whiteSpace=wrap;html=1;align=center;fontStyle=1" parent="1" vertex="1">
          <mxGeometry x="510" y="196.17" width="50" height="20" as="geometry" />
        </mxCell>
        <mxCell id="qRsQ-N_CKGC5OnTErh9l-10" value="assigns" style="shape=rhombus;perimeter=rhombusPerimeter;whiteSpace=wrap;html=1;align=center;rotation=55;fontStyle=1" parent="1" vertex="1">
          <mxGeometry x="247.7" y="417.6600000000001" width="70" height="36.66" as="geometry" />
        </mxCell>
        <mxCell id="qRsQ-N_CKGC5OnTErh9l-11" value="assigns" style="shape=rhombus;perimeter=rhombusPerimeter;whiteSpace=wrap;html=1;align=center;rotation=0;fontStyle=1" parent="1" vertex="1">
          <mxGeometry x="441.34" y="483.82" width="56.52" height="30.99" as="geometry" />
        </mxCell>
        <mxCell id="qRsQ-N_CKGC5OnTErh9l-13" value="views" style="shape=rhombus;perimeter=rhombusPerimeter;whiteSpace=wrap;html=1;align=center;rotation=-45;fontStyle=1" parent="1" vertex="1">
          <mxGeometry x="238.66" y="257.65999999999997" width="61.34" height="32.34" as="geometry" />
        </mxCell>
        <mxCell id="qRsQ-N_CKGC5OnTErh9l-22" value="have" style="shape=rhombus;perimeter=rhombusPerimeter;whiteSpace=wrap;html=1;align=center;rotation=0;fontStyle=1" parent="1" vertex="1">
          <mxGeometry x="392.14" y="189.99999999999997" width="61.34" height="32.34" as="geometry" />
        </mxCell>
        <mxCell id="qRsQ-N_CKGC5OnTErh9l-23" value="attends" style="shape=rhombus;perimeter=rhombusPerimeter;whiteSpace=wrap;html=1;align=center;rotation=0;fontStyle=1" parent="1" vertex="1">
          <mxGeometry x="618.6600000000001" y="191.99999999999994" width="61.34" height="32.34" as="geometry" />
        </mxCell>
        <mxCell id="qRsQ-N_CKGC5OnTErh9l-27" value="" style="endArrow=none;html=1;rounded=0;exitX=0.999;exitY=0.573;exitDx=0;exitDy=0;entryX=0;entryY=0.5;entryDx=0;entryDy=0;exitPerimeter=0;fontStyle=1" parent="1" source="qRsQ-N_CKGC5OnTErh9l-7" target="qRsQ-N_CKGC5OnTErh9l-3" edge="1">
          <mxGeometry relative="1" as="geometry">
            <mxPoint x="420" y="317.65999999999997" as="sourcePoint" />
            <mxPoint x="450" y="347.65999999999997" as="targetPoint" />
          </mxGeometry>
        </mxCell>
        <mxCell id="qRsQ-N_CKGC5OnTErh9l-28" value="1" style="resizable=0;html=1;whiteSpace=wrap;align=left;verticalAlign=bottom;fontStyle=1" parent="qRsQ-N_CKGC5OnTErh9l-27" connectable="0" vertex="1">
          <mxGeometry x="-1" relative="1" as="geometry">
            <mxPoint x="10" as="offset" />
          </mxGeometry>
        </mxCell>
        <mxCell id="qRsQ-N_CKGC5OnTErh9l-29" value="M" style="resizable=0;html=1;whiteSpace=wrap;align=right;verticalAlign=bottom;fontStyle=1" parent="qRsQ-N_CKGC5OnTErh9l-27" connectable="0" vertex="1">
          <mxGeometry x="1" relative="1" as="geometry" />
        </mxCell>
        <mxCell id="qRsQ-N_CKGC5OnTErh9l-30" value="" style="endArrow=none;html=1;rounded=0;exitX=1;exitY=1;exitDx=0;exitDy=0;entryX=0.349;entryY=-0.004;entryDx=0;entryDy=0;entryPerimeter=0;fontStyle=1" parent="1" source="qRsQ-N_CKGC5OnTErh9l-3" target="qRsQ-N_CKGC5OnTErh9l-5" edge="1">
          <mxGeometry relative="1" as="geometry">
            <mxPoint x="560" y="327.65999999999997" as="sourcePoint" />
            <mxPoint x="720" y="327.65999999999997" as="targetPoint" />
          </mxGeometry>
        </mxCell>
        <mxCell id="qRsQ-N_CKGC5OnTErh9l-31" value="M" style="resizable=0;html=1;whiteSpace=wrap;align=left;verticalAlign=bottom;fontStyle=1" parent="qRsQ-N_CKGC5OnTErh9l-30" connectable="0" vertex="1">
          <mxGeometry x="-1" relative="1" as="geometry" />
        </mxCell>
        <mxCell id="qRsQ-N_CKGC5OnTErh9l-32" value="1" style="resizable=0;html=1;whiteSpace=wrap;align=right;verticalAlign=bottom;fontStyle=1" parent="qRsQ-N_CKGC5OnTErh9l-30" connectable="0" vertex="1">
          <mxGeometry x="1" relative="1" as="geometry">
            <mxPoint x="5" as="offset" />
          </mxGeometry>
        </mxCell>
        <mxCell id="qRsQ-N_CKGC5OnTErh9l-33" value="" style="endArrow=none;html=1;rounded=0;exitX=0.426;exitY=1.03;exitDx=0;exitDy=0;exitPerimeter=0;entryX=0;entryY=0.5;entryDx=0;entryDy=0;fontStyle=1" parent="1" source="qRsQ-N_CKGC5OnTErh9l-7" target="qRsQ-N_CKGC5OnTErh9l-10" edge="1">
          <mxGeometry relative="1" as="geometry">
            <mxPoint x="282.29" y="387.65999999999997" as="sourcePoint" />
            <mxPoint x="442.29" y="387.65999999999997" as="targetPoint" />
          </mxGeometry>
        </mxCell>
        <mxCell id="qRsQ-N_CKGC5OnTErh9l-34" value="M" style="resizable=0;html=1;whiteSpace=wrap;align=left;verticalAlign=bottom;fontStyle=1" parent="qRsQ-N_CKGC5OnTErh9l-33" connectable="0" vertex="1">
          <mxGeometry x="-1" relative="1" as="geometry">
            <mxPoint x="11" y="16" as="offset" />
          </mxGeometry>
        </mxCell>
        <mxCell id="qRsQ-N_CKGC5OnTErh9l-113" value="M" style="resizable=0;html=1;whiteSpace=wrap;align=left;verticalAlign=bottom;fontStyle=1" parent="qRsQ-N_CKGC5OnTErh9l-33" connectable="0" vertex="1">
          <mxGeometry x="-1" relative="1" as="geometry">
            <mxPoint x="167" y="27" as="offset" />
          </mxGeometry>
        </mxCell>
        <mxCell id="qRsQ-N_CKGC5OnTErh9l-36" value="" style="endArrow=none;html=1;rounded=0;exitX=1;exitY=0.5;exitDx=0;exitDy=0;entryX=0;entryY=0.5;entryDx=0;entryDy=0;fontStyle=1" parent="1" source="qRsQ-N_CKGC5OnTErh9l-10" target="qRsQ-N_CKGC5OnTErh9l-6" edge="1">
          <mxGeometry relative="1" as="geometry">
            <mxPoint x="370" y="387.65999999999997" as="sourcePoint" />
            <mxPoint x="340" y="497.65999999999997" as="targetPoint" />
          </mxGeometry>
        </mxCell>
        <mxCell id="qRsQ-N_CKGC5OnTErh9l-38" value="1" style="resizable=0;html=1;whiteSpace=wrap;align=right;verticalAlign=bottom;fontStyle=1" parent="qRsQ-N_CKGC5OnTErh9l-36" connectable="0" vertex="1">
          <mxGeometry x="1" relative="1" as="geometry">
            <mxPoint y="-12" as="offset" />
          </mxGeometry>
        </mxCell>
        <mxCell id="qRsQ-N_CKGC5OnTErh9l-112" value="1" style="resizable=0;html=1;whiteSpace=wrap;align=right;verticalAlign=bottom;fontStyle=1" parent="qRsQ-N_CKGC5OnTErh9l-36" connectable="0" vertex="1">
          <mxGeometry x="1" relative="1" as="geometry">
            <mxPoint x="40" y="-19" as="offset" />
          </mxGeometry>
        </mxCell>
        <mxCell id="qRsQ-N_CKGC5OnTErh9l-39" value="" style="endArrow=none;html=1;rounded=0;exitX=1;exitY=0.429;exitDx=0;exitDy=0;entryX=0;entryY=0.5;entryDx=0;entryDy=0;exitPerimeter=0;fontStyle=1" parent="1" source="qRsQ-N_CKGC5OnTErh9l-6" target="qRsQ-N_CKGC5OnTErh9l-11" edge="1">
          <mxGeometry relative="1" as="geometry">
            <mxPoint x="490" y="387.65999999999997" as="sourcePoint" />
            <mxPoint x="650" y="387.65999999999997" as="targetPoint" />
          </mxGeometry>
        </mxCell>
        <mxCell id="qRsQ-N_CKGC5OnTErh9l-42" value="" style="endArrow=none;html=1;rounded=0;exitX=0.5;exitY=0;exitDx=0;exitDy=0;entryX=0.359;entryY=0.983;entryDx=0;entryDy=0;entryPerimeter=0;fontStyle=1" parent="1" source="qRsQ-N_CKGC5OnTErh9l-11" target="qRsQ-N_CKGC5OnTErh9l-5" edge="1">
          <mxGeometry relative="1" as="geometry">
            <mxPoint x="429.0438779109482" y="441.86" as="sourcePoint" />
            <mxPoint x="482.83" y="427.65999999999997" as="targetPoint" />
          </mxGeometry>
        </mxCell>
        <mxCell id="qRsQ-N_CKGC5OnTErh9l-43" value="M" style="resizable=0;html=1;whiteSpace=wrap;align=left;verticalAlign=bottom;fontStyle=1" parent="qRsQ-N_CKGC5OnTErh9l-42" connectable="0" vertex="1">
          <mxGeometry x="-1" relative="1" as="geometry">
            <mxPoint x="-13" y="-48" as="offset" />
          </mxGeometry>
        </mxCell>
        <mxCell id="qRsQ-N_CKGC5OnTErh9l-48" value="" style="endArrow=none;html=1;rounded=0;exitX=0.377;exitY=0.025;exitDx=0;exitDy=0;exitPerimeter=0;entryX=0;entryY=0.5;entryDx=0;entryDy=0;fontStyle=1" parent="1" source="qRsQ-N_CKGC5OnTErh9l-7" target="qRsQ-N_CKGC5OnTErh9l-13" edge="1">
          <mxGeometry relative="1" as="geometry">
            <mxPoint x="490" y="297.65999999999997" as="sourcePoint" />
            <mxPoint x="650" y="297.65999999999997" as="targetPoint" />
          </mxGeometry>
        </mxCell>
        <mxCell id="qRsQ-N_CKGC5OnTErh9l-49" value="1" style="resizable=0;html=1;whiteSpace=wrap;align=left;verticalAlign=bottom;fontStyle=1" parent="qRsQ-N_CKGC5OnTErh9l-48" connectable="0" vertex="1">
          <mxGeometry x="-1" relative="1" as="geometry">
            <mxPoint x="-8" as="offset" />
          </mxGeometry>
        </mxCell>
        <mxCell id="qRsQ-N_CKGC5OnTErh9l-51" value="" style="endArrow=none;html=1;rounded=0;exitX=1;exitY=0.5;exitDx=0;exitDy=0;entryX=0.393;entryY=1.019;entryDx=0;entryDy=0;entryPerimeter=0;fontStyle=1" parent="1" source="qRsQ-N_CKGC5OnTErh9l-13" target="qRsQ-N_CKGC5OnTErh9l-8" edge="1">
          <mxGeometry relative="1" as="geometry">
            <mxPoint x="490" y="297.65999999999997" as="sourcePoint" />
            <mxPoint x="650" y="297.65999999999997" as="targetPoint" />
          </mxGeometry>
        </mxCell>
        <mxCell id="qRsQ-N_CKGC5OnTErh9l-52" value="M" style="resizable=0;html=1;whiteSpace=wrap;align=left;verticalAlign=bottom;fontStyle=1" parent="qRsQ-N_CKGC5OnTErh9l-51" connectable="0" vertex="1">
          <mxGeometry x="-1" relative="1" as="geometry">
            <mxPoint x="-1" y="-12" as="offset" />
          </mxGeometry>
        </mxCell>
        <mxCell id="qRsQ-N_CKGC5OnTErh9l-54" value="" style="endArrow=none;html=1;rounded=0;entryX=0;entryY=0.5;entryDx=0;entryDy=0;exitX=1;exitY=0.5;exitDx=0;exitDy=0;fontStyle=1" parent="1" source="qRsQ-N_CKGC5OnTErh9l-22" target="qRsQ-N_CKGC5OnTErh9l-9" edge="1">
          <mxGeometry relative="1" as="geometry">
            <mxPoint x="490" y="297.65999999999997" as="sourcePoint" />
            <mxPoint x="650" y="297.65999999999997" as="targetPoint" />
          </mxGeometry>
        </mxCell>
        <mxCell id="qRsQ-N_CKGC5OnTErh9l-56" value="M" style="resizable=0;html=1;whiteSpace=wrap;align=right;verticalAlign=bottom;fontStyle=1" parent="qRsQ-N_CKGC5OnTErh9l-54" connectable="0" vertex="1">
          <mxGeometry x="1" relative="1" as="geometry" />
        </mxCell>
        <mxCell id="qRsQ-N_CKGC5OnTErh9l-57" value="" style="endArrow=none;html=1;rounded=0;entryX=0;entryY=0.5;entryDx=0;entryDy=0;exitX=1;exitY=0.5;exitDx=0;exitDy=0;fontStyle=1" parent="1" source="qRsQ-N_CKGC5OnTErh9l-8" target="qRsQ-N_CKGC5OnTErh9l-22" edge="1">
          <mxGeometry relative="1" as="geometry">
            <mxPoint x="490" y="297.65999999999997" as="sourcePoint" />
            <mxPoint x="650" y="297.65999999999997" as="targetPoint" />
          </mxGeometry>
        </mxCell>
        <mxCell id="qRsQ-N_CKGC5OnTErh9l-58" value="1" style="resizable=0;html=1;whiteSpace=wrap;align=left;verticalAlign=bottom;fontStyle=1" parent="qRsQ-N_CKGC5OnTErh9l-57" connectable="0" vertex="1">
          <mxGeometry x="-1" relative="1" as="geometry" />
        </mxCell>
        <mxCell id="qRsQ-N_CKGC5OnTErh9l-61" value="" style="endArrow=none;html=1;rounded=0;exitX=1.069;exitY=0.696;exitDx=0;exitDy=0;entryX=0;entryY=0.5;entryDx=0;entryDy=0;exitPerimeter=0;fontStyle=1" parent="1" source="qRsQ-N_CKGC5OnTErh9l-9" target="qRsQ-N_CKGC5OnTErh9l-23" edge="1">
          <mxGeometry relative="1" as="geometry">
            <mxPoint x="490" y="297.65999999999997" as="sourcePoint" />
            <mxPoint x="650" y="297.65999999999997" as="targetPoint" />
          </mxGeometry>
        </mxCell>
        <mxCell id="qRsQ-N_CKGC5OnTErh9l-62" value="M" style="resizable=0;html=1;whiteSpace=wrap;align=left;verticalAlign=bottom;fontStyle=1" parent="qRsQ-N_CKGC5OnTErh9l-61" connectable="0" vertex="1">
          <mxGeometry x="-1" relative="1" as="geometry">
            <mxPoint x="-4" y="20" as="offset" />
          </mxGeometry>
        </mxCell>
        <mxCell id="qRsQ-N_CKGC5OnTErh9l-64" value="" style="endArrow=none;html=1;rounded=0;entryX=1;entryY=0.5;entryDx=0;entryDy=0;exitX=0;exitY=0.25;exitDx=0;exitDy=0;fontStyle=1" parent="1" source="qRsQ-N_CKGC5OnTErh9l-4" target="qRsQ-N_CKGC5OnTErh9l-23" edge="1">
          <mxGeometry relative="1" as="geometry">
            <mxPoint x="690" y="333.65999999999997" as="sourcePoint" />
            <mxPoint x="650" y="297.65999999999997" as="targetPoint" />
          </mxGeometry>
        </mxCell>
        <mxCell id="qRsQ-N_CKGC5OnTErh9l-65" value="1" style="resizable=0;html=1;whiteSpace=wrap;align=left;verticalAlign=bottom;fontStyle=1" parent="qRsQ-N_CKGC5OnTErh9l-64" connectable="0" vertex="1">
          <mxGeometry x="-1" relative="1" as="geometry">
            <mxPoint x="-15" y="-1" as="offset" />
          </mxGeometry>
        </mxCell>
        <mxCell id="qRsQ-N_CKGC5OnTErh9l-69" value="" style="endArrow=none;html=1;rounded=0;entryX=0.5;entryY=0;entryDx=0;entryDy=0;exitX=0.589;exitY=1.025;exitDx=0;exitDy=0;exitPerimeter=0;fontStyle=1" parent="1" source="qRsQ-N_CKGC5OnTErh9l-8" target="qRsQ-N_CKGC5OnTErh9l-3" edge="1">
          <mxGeometry relative="1" as="geometry">
            <mxPoint x="350" y="220" as="sourcePoint" />
            <mxPoint x="540" y="300" as="targetPoint" />
          </mxGeometry>
        </mxCell>
        <mxCell id="qRsQ-N_CKGC5OnTErh9l-70" value="1" style="resizable=0;html=1;whiteSpace=wrap;align=left;verticalAlign=bottom;fontStyle=1" parent="qRsQ-N_CKGC5OnTErh9l-69" connectable="0" vertex="1">
          <mxGeometry x="-1" relative="1" as="geometry">
            <mxPoint x="-10" y="24" as="offset" />
          </mxGeometry>
        </mxCell>
        <mxCell id="qRsQ-N_CKGC5OnTErh9l-71" value="M" style="resizable=0;html=1;whiteSpace=wrap;align=right;verticalAlign=bottom;fontStyle=1" parent="qRsQ-N_CKGC5OnTErh9l-69" connectable="0" vertex="1">
          <mxGeometry x="1" relative="1" as="geometry">
            <mxPoint x="-7" as="offset" />
          </mxGeometry>
        </mxCell>
        <mxCell id="qRsQ-N_CKGC5OnTErh9l-72" value="&lt;font style=&quot;font-size: 10px;&quot;&gt;ID&lt;/font&gt;" style="ellipse;whiteSpace=wrap;html=1;align=center;fontStyle=5;" parent="1" vertex="1">
          <mxGeometry x="411.18" y="283.83" width="23.26" height="20" as="geometry" />
        </mxCell>
        <mxCell id="qRsQ-N_CKGC5OnTErh9l-74" value="" style="endArrow=none;html=1;rounded=0;entryX=0.308;entryY=0.979;entryDx=0;entryDy=0;exitX=0.75;exitY=0;exitDx=0;exitDy=0;entryPerimeter=0;fontStyle=1" parent="1" source="qRsQ-N_CKGC5OnTErh9l-3" target="qRsQ-N_CKGC5OnTErh9l-72" edge="1">
          <mxGeometry relative="1" as="geometry">
            <mxPoint x="370" y="350" as="sourcePoint" />
            <mxPoint x="530" y="350" as="targetPoint" />
          </mxGeometry>
        </mxCell>
        <mxCell id="qRsQ-N_CKGC5OnTErh9l-76" value="&lt;font style=&quot;font-size: 10px;&quot;&gt;index&lt;/font&gt;" style="ellipse;whiteSpace=wrap;html=1;align=center;fontStyle=1" parent="1" vertex="1">
          <mxGeometry x="441.34000000000003" y="283.83" width="30" height="20" as="geometry" />
        </mxCell>
        <mxCell id="qRsQ-N_CKGC5OnTErh9l-77" value="" style="endArrow=none;html=1;rounded=0;entryX=0.333;entryY=1;entryDx=0;entryDy=0;entryPerimeter=0;exitX=1;exitY=0;exitDx=0;exitDy=0;fontStyle=1" parent="1" source="qRsQ-N_CKGC5OnTErh9l-3" target="qRsQ-N_CKGC5OnTErh9l-76" edge="1">
          <mxGeometry relative="1" as="geometry">
            <mxPoint x="370" y="350" as="sourcePoint" />
            <mxPoint x="530" y="350" as="targetPoint" />
          </mxGeometry>
        </mxCell>
        <mxCell id="qRsQ-N_CKGC5OnTErh9l-78" value="&lt;font style=&quot;font-size: 10px;&quot;&gt;name&lt;/font&gt;" style="ellipse;whiteSpace=wrap;html=1;align=center;fontStyle=1" parent="1" vertex="1">
          <mxGeometry x="450" y="307.65999999999997" width="30" height="20" as="geometry" />
        </mxCell>
        <mxCell id="qRsQ-N_CKGC5OnTErh9l-79" value="" style="endArrow=none;html=1;rounded=0;entryX=0.056;entryY=0.721;entryDx=0;entryDy=0;entryPerimeter=0;exitX=1;exitY=0.25;exitDx=0;exitDy=0;fontStyle=1" parent="1" source="qRsQ-N_CKGC5OnTErh9l-3" target="qRsQ-N_CKGC5OnTErh9l-78" edge="1">
          <mxGeometry relative="1" as="geometry">
            <mxPoint x="478" y="338" as="sourcePoint" />
            <mxPoint x="540" y="360" as="targetPoint" />
          </mxGeometry>
        </mxCell>
        <mxCell id="qRsQ-N_CKGC5OnTErh9l-80" value="&lt;font style=&quot;font-size: 10px;&quot;&gt;password&lt;/font&gt;" style="ellipse;whiteSpace=wrap;html=1;align=center;fontStyle=1" parent="1" vertex="1">
          <mxGeometry x="480" y="320" width="50" height="20" as="geometry" />
        </mxCell>
        <mxCell id="qRsQ-N_CKGC5OnTErh9l-81" value="" style="endArrow=none;html=1;rounded=0;entryX=0;entryY=0.5;entryDx=0;entryDy=0;exitX=0.992;exitY=0.381;exitDx=0;exitDy=0;exitPerimeter=0;fontStyle=1" parent="1" source="qRsQ-N_CKGC5OnTErh9l-3" target="qRsQ-N_CKGC5OnTErh9l-80" edge="1">
          <mxGeometry relative="1" as="geometry">
            <mxPoint x="478" y="345" as="sourcePoint" />
            <mxPoint x="550" y="370" as="targetPoint" />
          </mxGeometry>
        </mxCell>
        <mxCell id="qRsQ-N_CKGC5OnTErh9l-84" value="&lt;span style=&quot;border-bottom: 1px dotted&quot;&gt;&lt;font style=&quot;font-size: 8px;&quot;&gt;report_sup&lt;/font&gt;&lt;/span&gt;" style="ellipse;whiteSpace=wrap;html=1;align=center;fontStyle=1" parent="1" vertex="1">
          <mxGeometry x="270" y="520.0000000000001" width="50" height="30" as="geometry" />
        </mxCell>
        <mxCell id="qRsQ-N_CKGC5OnTErh9l-85" value="&lt;span style=&quot;border-bottom: 1px dotted&quot;&gt;&lt;font style=&quot;font-size: 8px;&quot;&gt;visiting_sup&lt;/font&gt;&lt;/span&gt;" style="ellipse;whiteSpace=wrap;html=1;align=center;fontStyle=1" parent="1" vertex="1">
          <mxGeometry x="280" y="372.08" width="50" height="30" as="geometry" />
        </mxCell>
        <mxCell id="qRsQ-N_CKGC5OnTErh9l-87" value="&lt;span style=&quot;border-bottom: 1px dotted&quot;&gt;&lt;font style=&quot;font-size: 8px;&quot;&gt;host_sup&lt;/font&gt;&lt;/span&gt;" style="ellipse;whiteSpace=wrap;html=1;align=center;fontStyle=1" parent="1" vertex="1">
          <mxGeometry x="370" y="265" width="50" height="20" as="geometry" />
        </mxCell>
        <mxCell id="qRsQ-N_CKGC5OnTErh9l-88" value="" style="endArrow=none;html=1;rounded=0;exitX=0.937;exitY=0.249;exitDx=0;exitDy=0;entryX=0;entryY=0.75;entryDx=0;entryDy=0;exitPerimeter=0;fontStyle=1" parent="1" source="qRsQ-N_CKGC5OnTErh9l-84" target="qRsQ-N_CKGC5OnTErh9l-6" edge="1">
          <mxGeometry relative="1" as="geometry">
            <mxPoint x="302.83" y="480" as="sourcePoint" />
            <mxPoint x="305.8300000000001" y="487.65999999999997" as="targetPoint" />
          </mxGeometry>
        </mxCell>
        <mxCell id="qRsQ-N_CKGC5OnTErh9l-89" value="" style="endArrow=none;html=1;rounded=0;exitX=0.909;exitY=0.24;exitDx=0;exitDy=0;entryX=0;entryY=1;entryDx=0;entryDy=0;exitPerimeter=0;fontStyle=1" parent="1" source="qRsQ-N_CKGC5OnTErh9l-85" target="qRsQ-N_CKGC5OnTErh9l-3" edge="1">
          <mxGeometry relative="1" as="geometry">
            <mxPoint x="360" y="380" as="sourcePoint" />
            <mxPoint x="393" y="368" as="targetPoint" />
          </mxGeometry>
        </mxCell>
        <mxCell id="qRsQ-N_CKGC5OnTErh9l-90" value="" style="endArrow=none;html=1;rounded=0;exitX=0.5;exitY=1;exitDx=0;exitDy=0;entryX=0.555;entryY=-0.002;entryDx=0;entryDy=0;entryPerimeter=0;fontStyle=1" parent="1" source="qRsQ-N_CKGC5OnTErh9l-87" target="qRsQ-N_CKGC5OnTErh9l-3" edge="1">
          <mxGeometry relative="1" as="geometry">
            <mxPoint x="440" y="389" as="sourcePoint" />
            <mxPoint x="390" y="330" as="targetPoint" />
          </mxGeometry>
        </mxCell>
        <mxCell id="qRsQ-N_CKGC5OnTErh9l-91" value="&lt;font style=&quot;font-size: 10px;&quot;&gt;username&lt;/font&gt;" style="ellipse;whiteSpace=wrap;html=1;align=center;fontStyle=1" parent="1" vertex="1">
          <mxGeometry x="556.2" y="397.65999999999997" width="50" height="20" as="geometry" />
        </mxCell>
        <mxCell id="qRsQ-N_CKGC5OnTErh9l-92" value="" style="endArrow=none;html=1;rounded=0;entryX=0;entryY=0.5;entryDx=0;entryDy=0;exitX=1;exitY=0.25;exitDx=0;exitDy=0;fontStyle=1" parent="1" source="qRsQ-N_CKGC5OnTErh9l-5" target="qRsQ-N_CKGC5OnTErh9l-91" edge="1">
          <mxGeometry relative="1" as="geometry">
            <mxPoint x="540.83" y="417.65999999999997" as="sourcePoint" />
            <mxPoint x="622.83" y="453.25" as="targetPoint" />
          </mxGeometry>
        </mxCell>
        <mxCell id="qRsQ-N_CKGC5OnTErh9l-93" value="&lt;font style=&quot;font-size: 10px;&quot;&gt;password&lt;/font&gt;" style="ellipse;whiteSpace=wrap;html=1;align=center;fontStyle=1" parent="1" vertex="1">
          <mxGeometry x="541.83" y="421.98" width="50" height="20" as="geometry" />
        </mxCell>
        <mxCell id="qRsQ-N_CKGC5OnTErh9l-94" value="" style="endArrow=none;html=1;rounded=0;entryX=0;entryY=0.5;entryDx=0;entryDy=0;exitX=0.823;exitY=1.018;exitDx=0;exitDy=0;exitPerimeter=0;fontStyle=1" parent="1" source="qRsQ-N_CKGC5OnTErh9l-5" target="qRsQ-N_CKGC5OnTErh9l-93" edge="1">
          <mxGeometry relative="1" as="geometry">
            <mxPoint x="542.83" y="435.92" as="sourcePoint" />
            <mxPoint x="632.83" y="486.17" as="targetPoint" />
          </mxGeometry>
        </mxCell>
        <mxCell id="qRsQ-N_CKGC5OnTErh9l-95" value="&lt;font style=&quot;font-size: 10px;&quot;&gt;ID&lt;/font&gt;" style="ellipse;whiteSpace=wrap;html=1;align=center;fontStyle=5;" parent="1" vertex="1">
          <mxGeometry x="548.0300000000001" y="377.08000000000004" width="23.26" height="20" as="geometry" />
        </mxCell>
        <mxCell id="qRsQ-N_CKGC5OnTErh9l-96" value="" style="endArrow=none;html=1;rounded=0;entryX=0.062;entryY=0.825;entryDx=0;entryDy=0;exitX=0.948;exitY=-0.045;exitDx=0;exitDy=0;exitPerimeter=0;entryPerimeter=0;fontStyle=1" parent="1" target="qRsQ-N_CKGC5OnTErh9l-95" edge="1">
          <mxGeometry relative="1" as="geometry">
            <mxPoint x="532.83" y="399.42" as="sourcePoint" />
            <mxPoint x="634.5500000000001" y="443.83000000000004" as="targetPoint" />
          </mxGeometry>
        </mxCell>
        <mxCell id="qRsQ-N_CKGC5OnTErh9l-97" value="&lt;span style=&quot;border-bottom: 1px dotted&quot;&gt;&lt;font style=&quot;font-size: 8px;&quot;&gt;student&lt;/font&gt;&lt;/span&gt;" style="ellipse;whiteSpace=wrap;html=1;align=center;fontStyle=1" parent="1" vertex="1">
          <mxGeometry x="497.86000000000007" y="440.98999999999995" width="50" height="30" as="geometry" />
        </mxCell>
        <mxCell id="qRsQ-N_CKGC5OnTErh9l-98" value="" style="endArrow=none;html=1;rounded=0;exitX=0.226;exitY=0.07;exitDx=0;exitDy=0;entryX=0.613;entryY=0.996;entryDx=0;entryDy=0;exitPerimeter=0;entryPerimeter=0;fontStyle=1" parent="1" source="qRsQ-N_CKGC5OnTErh9l-97" target="qRsQ-N_CKGC5OnTErh9l-5" edge="1">
          <mxGeometry relative="1" as="geometry">
            <mxPoint x="504.17" y="439.98" as="sourcePoint" />
            <mxPoint x="541.1700000000001" y="418.98" as="targetPoint" />
          </mxGeometry>
        </mxCell>
        <mxCell id="qRsQ-N_CKGC5OnTErh9l-101" value="&lt;font style=&quot;font-size: 10px;&quot;&gt;ID&lt;/font&gt;" style="ellipse;whiteSpace=wrap;html=1;align=center;fontStyle=5;" parent="1" vertex="1">
          <mxGeometry x="434.44" y="527.6600000000001" width="23.26" height="20" as="geometry" />
        </mxCell>
        <mxCell id="qRsQ-N_CKGC5OnTErh9l-102" value="" style="endArrow=none;html=1;rounded=0;entryX=0.138;entryY=0.069;entryDx=0;entryDy=0;exitX=1;exitY=1;exitDx=0;exitDy=0;entryPerimeter=0;fontStyle=1" parent="1" source="qRsQ-N_CKGC5OnTErh9l-6" target="qRsQ-N_CKGC5OnTErh9l-101" edge="1">
          <mxGeometry relative="1" as="geometry">
            <mxPoint x="405.02" y="591.76" as="sourcePoint" />
            <mxPoint x="506.74" y="636.1700000000001" as="targetPoint" />
          </mxGeometry>
        </mxCell>
        <mxCell id="qRsQ-N_CKGC5OnTErh9l-103" value="&lt;font style=&quot;font-size: 10px;&quot;&gt;username&lt;/font&gt;" style="ellipse;whiteSpace=wrap;html=1;align=center;fontStyle=1" parent="1" vertex="1">
          <mxGeometry x="400" y="552.6600000000001" width="50" height="20" as="geometry" />
        </mxCell>
        <mxCell id="qRsQ-N_CKGC5OnTErh9l-104" value="" style="endArrow=none;html=1;rounded=0;entryX=0.272;entryY=0.021;entryDx=0;entryDy=0;entryPerimeter=0;exitX=0.578;exitY=1.033;exitDx=0;exitDy=0;exitPerimeter=0;fontStyle=1" parent="1" source="qRsQ-N_CKGC5OnTErh9l-6" target="qRsQ-N_CKGC5OnTErh9l-103" edge="1">
          <mxGeometry relative="1" as="geometry">
            <mxPoint x="300" y="575.92" as="sourcePoint" />
            <mxPoint x="390" y="626.17" as="targetPoint" />
          </mxGeometry>
        </mxCell>
        <mxCell id="qRsQ-N_CKGC5OnTErh9l-109" value="&lt;span style=&quot;border-bottom: 1px dotted&quot;&gt;&lt;font style=&quot;font-size: 8px;&quot;&gt;visiting_sup&lt;/font&gt;&lt;/span&gt;" style="ellipse;whiteSpace=wrap;html=1;align=center;fontStyle=1" parent="1" vertex="1">
          <mxGeometry x="300" y="547.6600000000001" width="50" height="30" as="geometry" />
        </mxCell>
        <mxCell id="qRsQ-N_CKGC5OnTErh9l-110" value="" style="endArrow=none;html=1;rounded=0;exitX=0.564;exitY=-0.018;exitDx=0;exitDy=0;entryX=0.143;entryY=0.958;entryDx=0;entryDy=0;entryPerimeter=0;exitPerimeter=0;fontStyle=1" parent="1" source="qRsQ-N_CKGC5OnTErh9l-109" target="qRsQ-N_CKGC5OnTErh9l-6" edge="1">
          <mxGeometry relative="1" as="geometry">
            <mxPoint x="270" y="535.66" as="sourcePoint" />
            <mxPoint x="307" y="514.66" as="targetPoint" />
          </mxGeometry>
        </mxCell>
        <mxCell id="qRsQ-N_CKGC5OnTErh9l-111" value="" style="endArrow=none;html=1;rounded=0;entryX=0.452;entryY=0.986;entryDx=0;entryDy=0;entryPerimeter=0;exitX=0.634;exitY=-0.065;exitDx=0;exitDy=0;exitPerimeter=0;fontStyle=1" parent="1" source="qRsQ-N_CKGC5OnTErh9l-6" target="qRsQ-N_CKGC5OnTErh9l-3" edge="1">
          <mxGeometry relative="1" as="geometry">
            <mxPoint x="200" y="450" as="sourcePoint" />
            <mxPoint x="360" y="450" as="targetPoint" />
          </mxGeometry>
        </mxCell>
        <mxCell id="qRsQ-N_CKGC5OnTErh9l-114" value="&lt;span style=&quot;border-bottom: 1px dotted&quot;&gt;&lt;font style=&quot;font-size: 8px;&quot;&gt;student&lt;/font&gt;&lt;/span&gt;" style="ellipse;whiteSpace=wrap;html=1;align=center;fontStyle=1" parent="1" vertex="1">
          <mxGeometry x="257.7" y="487.66" width="50" height="30" as="geometry" />
        </mxCell>
        <mxCell id="qRsQ-N_CKGC5OnTErh9l-115" value="" style="endArrow=none;html=1;rounded=0;exitX=1;exitY=0.5;exitDx=0;exitDy=0;entryX=0;entryY=0.5;entryDx=0;entryDy=0;fontStyle=1" parent="1" source="qRsQ-N_CKGC5OnTErh9l-114" target="qRsQ-N_CKGC5OnTErh9l-6" edge="1">
          <mxGeometry relative="1" as="geometry">
            <mxPoint x="262.83" y="456.65999999999997" as="sourcePoint" />
            <mxPoint x="300" y="481.65999999999997" as="targetPoint" />
          </mxGeometry>
        </mxCell>
        <mxCell id="qRsQ-N_CKGC5OnTErh9l-116" value="" style="endArrow=none;html=1;rounded=0;exitX=0.25;exitY=1;exitDx=0;exitDy=0;fontStyle=1" parent="1" source="qRsQ-N_CKGC5OnTErh9l-6" target="qRsQ-N_CKGC5OnTErh9l-105" edge="1">
          <mxGeometry relative="1" as="geometry">
            <mxPoint x="357" y="511" as="sourcePoint" />
            <mxPoint x="380" y="563" as="targetPoint" />
          </mxGeometry>
        </mxCell>
        <mxCell id="qRsQ-N_CKGC5OnTErh9l-105" value="&lt;font style=&quot;font-size: 10px;&quot;&gt;password&lt;/font&gt;" style="ellipse;whiteSpace=wrap;html=1;align=center;fontStyle=1" parent="1" vertex="1">
          <mxGeometry x="350" y="540" width="50" height="20" as="geometry" />
        </mxCell>
        <mxCell id="qRsQ-N_CKGC5OnTErh9l-117" value="&lt;span style=&quot;border-bottom: 1px dotted&quot;&gt;&lt;font style=&quot;font-size: 8px;&quot;&gt;student&lt;/font&gt;&lt;/span&gt;" style="ellipse;whiteSpace=wrap;html=1;align=center;fontStyle=1" parent="1" vertex="1">
          <mxGeometry x="96.74" y="320" width="50" height="30" as="geometry" />
        </mxCell>
        <mxCell id="qRsQ-N_CKGC5OnTErh9l-118" value="" style="endArrow=none;html=1;rounded=0;exitX=1;exitY=0.5;exitDx=0;exitDy=0;entryX=0;entryY=0.5;entryDx=0;entryDy=0;fontStyle=1" parent="1" source="qRsQ-N_CKGC5OnTErh9l-117" target="qRsQ-N_CKGC5OnTErh9l-7" edge="1">
          <mxGeometry relative="1" as="geometry">
            <mxPoint x="5.1299999999999955" y="326.65999999999997" as="sourcePoint" />
            <mxPoint x="82.30000000000001" y="369" as="targetPoint" />
          </mxGeometry>
        </mxCell>
        <mxCell id="qRsQ-N_CKGC5OnTErh9l-119" value="&lt;font style=&quot;font-size: 10px;&quot;&gt;password&lt;/font&gt;" style="ellipse;whiteSpace=wrap;html=1;align=center;fontStyle=1" parent="1" vertex="1">
          <mxGeometry x="90" y="357.08" width="60" height="20" as="geometry" />
        </mxCell>
        <mxCell id="qRsQ-N_CKGC5OnTErh9l-120" value="" style="endArrow=none;html=1;rounded=0;exitX=0;exitY=1;exitDx=0;exitDy=0;fontStyle=1" parent="1" source="qRsQ-N_CKGC5OnTErh9l-7" target="qRsQ-N_CKGC5OnTErh9l-119" edge="1">
          <mxGeometry relative="1" as="geometry">
            <mxPoint x="150" y="360" as="sourcePoint" />
            <mxPoint x="122.30000000000001" y="433" as="targetPoint" />
          </mxGeometry>
        </mxCell>
        <mxCell id="qRsQ-N_CKGC5OnTErh9l-121" value="&lt;font style=&quot;font-size: 10px;&quot;&gt;username&lt;/font&gt;" style="ellipse;whiteSpace=wrap;html=1;align=center;fontStyle=1" parent="1" vertex="1">
          <mxGeometry x="150" y="367.66" width="60" height="20" as="geometry" />
        </mxCell>
        <mxCell id="qRsQ-N_CKGC5OnTErh9l-122" value="" style="endArrow=none;html=1;rounded=0;entryX=0.5;entryY=0;entryDx=0;entryDy=0;exitX=0.093;exitY=1.039;exitDx=0;exitDy=0;exitPerimeter=0;fontStyle=1" parent="1" source="qRsQ-N_CKGC5OnTErh9l-7" target="qRsQ-N_CKGC5OnTErh9l-121" edge="1">
          <mxGeometry relative="1" as="geometry">
            <mxPoint x="160" y="360" as="sourcePoint" />
            <mxPoint x="132.3" y="496.16999999999996" as="targetPoint" />
          </mxGeometry>
        </mxCell>
        <mxCell id="qRsQ-N_CKGC5OnTErh9l-123" value="&lt;font style=&quot;font-size: 10px;&quot;&gt;ID&lt;/font&gt;" style="ellipse;whiteSpace=wrap;html=1;align=center;fontStyle=5;" parent="1" vertex="1">
          <mxGeometry x="106.74000000000001" y="290.0000000000001" width="23.26" height="20" as="geometry" />
        </mxCell>
        <mxCell id="qRsQ-N_CKGC5OnTErh9l-124" value="" style="endArrow=none;html=1;rounded=0;entryX=0.887;entryY=0.772;entryDx=0;entryDy=0;exitX=0;exitY=0;exitDx=0;exitDy=0;entryPerimeter=0;fontStyle=1" parent="1" source="qRsQ-N_CKGC5OnTErh9l-7" target="qRsQ-N_CKGC5OnTErh9l-123" edge="1">
          <mxGeometry relative="1" as="geometry">
            <mxPoint x="152.3" y="381" as="sourcePoint" />
            <mxPoint x="249.04000000000002" y="506.1700000000001" as="targetPoint" />
          </mxGeometry>
        </mxCell>
        <mxCell id="qRsQ-N_CKGC5OnTErh9l-125" value="&lt;span style=&quot;border-bottom: 1px dotted&quot;&gt;&lt;font style=&quot;font-size: 8px;&quot;&gt;logbook&lt;/font&gt;&lt;/span&gt;" style="ellipse;whiteSpace=wrap;html=1;align=center;fontStyle=1" parent="1" vertex="1">
          <mxGeometry x="160" y="285.00000000000006" width="50" height="30" as="geometry" />
        </mxCell>
        <mxCell id="qRsQ-N_CKGC5OnTErh9l-126" value="" style="endArrow=none;html=1;rounded=0;exitX=0.5;exitY=1;exitDx=0;exitDy=0;entryX=0.25;entryY=0;entryDx=0;entryDy=0;fontStyle=1" parent="1" source="qRsQ-N_CKGC5OnTErh9l-125" target="qRsQ-N_CKGC5OnTErh9l-7" edge="1">
          <mxGeometry relative="1" as="geometry">
            <mxPoint x="105.13" y="396.08" as="sourcePoint" />
            <mxPoint x="250" y="412.42" as="targetPoint" />
          </mxGeometry>
        </mxCell>
        <mxCell id="qRsQ-N_CKGC5OnTErh9l-127" value="&lt;font style=&quot;font-size: 10px;&quot;&gt;ID&lt;/font&gt;" style="ellipse;whiteSpace=wrap;html=1;align=center;fontStyle=5;" parent="1" vertex="1">
          <mxGeometry x="234.44" y="172.0000000000001" width="23.26" height="20" as="geometry" />
        </mxCell>
        <mxCell id="qRsQ-N_CKGC5OnTErh9l-128" value="" style="endArrow=none;html=1;rounded=0;entryX=0.887;entryY=0.772;entryDx=0;entryDy=0;exitX=0;exitY=0.5;exitDx=0;exitDy=0;entryPerimeter=0;fontStyle=1" parent="1" source="qRsQ-N_CKGC5OnTErh9l-8" target="qRsQ-N_CKGC5OnTErh9l-127" edge="1">
          <mxGeometry relative="1" as="geometry">
            <mxPoint x="277.7" y="190" as="sourcePoint" />
            <mxPoint x="346.74" y="363.1700000000001" as="targetPoint" />
          </mxGeometry>
        </mxCell>
        <mxCell id="qRsQ-N_CKGC5OnTErh9l-129" value="&lt;span style=&quot;border-bottom: 1px dotted&quot;&gt;&lt;font style=&quot;font-size: 8px;&quot;&gt;weeks&lt;/font&gt;&lt;/span&gt;" style="ellipse;whiteSpace=wrap;html=1;align=center;fontStyle=1" parent="1" vertex="1">
          <mxGeometry x="280" y="142.00000000000006" width="50" height="30" as="geometry" />
        </mxCell>
        <mxCell id="qRsQ-N_CKGC5OnTErh9l-130" value="" style="endArrow=none;html=1;rounded=0;exitX=0.5;exitY=1;exitDx=0;exitDy=0;entryX=0.326;entryY=0;entryDx=0;entryDy=0;entryPerimeter=0;fontStyle=1" parent="1" source="qRsQ-N_CKGC5OnTErh9l-129" target="qRsQ-N_CKGC5OnTErh9l-8" edge="1">
          <mxGeometry relative="1" as="geometry">
            <mxPoint x="202.82999999999998" y="253.07999999999998" as="sourcePoint" />
            <mxPoint x="302.7" y="190" as="targetPoint" />
          </mxGeometry>
        </mxCell>
        <mxCell id="qRsQ-N_CKGC5OnTErh9l-131" value="&lt;font style=&quot;font-size: 10px;&quot;&gt;ID&lt;/font&gt;" style="ellipse;whiteSpace=wrap;html=1;align=center;fontStyle=5;" parent="1" vertex="1">
          <mxGeometry x="497.86" y="152.0000000000001" width="23.26" height="20" as="geometry" />
        </mxCell>
        <mxCell id="qRsQ-N_CKGC5OnTErh9l-132" value="" style="endArrow=none;html=1;rounded=0;entryX=0.689;entryY=1.017;entryDx=0;entryDy=0;exitX=0.25;exitY=0;exitDx=0;exitDy=0;entryPerimeter=0;fontStyle=1" parent="1" source="qRsQ-N_CKGC5OnTErh9l-9" target="qRsQ-N_CKGC5OnTErh9l-131" edge="1">
          <mxGeometry relative="1" as="geometry">
            <mxPoint x="577.78" y="164" as="sourcePoint" />
            <mxPoint x="634.52" y="321.1700000000001" as="targetPoint" />
          </mxGeometry>
        </mxCell>
        <mxCell id="qRsQ-N_CKGC5OnTErh9l-133" value="&lt;font style=&quot;font-size: 10px;&quot;&gt;day&lt;/font&gt;" style="ellipse;whiteSpace=wrap;html=1;align=center;fontStyle=1" parent="1" vertex="1">
          <mxGeometry x="526.2" y="151.99999999999997" width="30" height="20" as="geometry" />
        </mxCell>
        <mxCell id="qRsQ-N_CKGC5OnTErh9l-134" value="" style="endArrow=none;html=1;rounded=0;entryX=0.333;entryY=1;entryDx=0;entryDy=0;entryPerimeter=0;exitX=0.544;exitY=-0.022;exitDx=0;exitDy=0;exitPerimeter=0;fontStyle=1" parent="1" source="qRsQ-N_CKGC5OnTErh9l-9" target="qRsQ-N_CKGC5OnTErh9l-133" edge="1">
          <mxGeometry relative="1" as="geometry">
            <mxPoint x="543.26" y="191.17" as="sourcePoint" />
            <mxPoint x="644.26" y="208.17" as="targetPoint" />
          </mxGeometry>
        </mxCell>
        <mxCell id="qRsQ-N_CKGC5OnTErh9l-135" value="&lt;font style=&quot;font-size: 10px;&quot;&gt;title&lt;/font&gt;" style="ellipse;whiteSpace=wrap;html=1;align=center;fontStyle=1" parent="1" vertex="1">
          <mxGeometry x="560" y="156.16999999999996" width="30" height="20" as="geometry" />
        </mxCell>
        <mxCell id="qRsQ-N_CKGC5OnTErh9l-136" value="" style="endArrow=none;html=1;rounded=0;entryX=0.333;entryY=1;entryDx=0;entryDy=0;entryPerimeter=0;exitX=0.812;exitY=-0.007;exitDx=0;exitDy=0;exitPerimeter=0;fontStyle=1" parent="1" source="qRsQ-N_CKGC5OnTErh9l-9" target="qRsQ-N_CKGC5OnTErh9l-135" edge="1">
          <mxGeometry relative="1" as="geometry">
            <mxPoint x="572.2" y="198" as="sourcePoint" />
            <mxPoint x="679.46" y="210.17" as="targetPoint" />
          </mxGeometry>
        </mxCell>
        <mxCell id="qRsQ-N_CKGC5OnTErh9l-137" value="&lt;font style=&quot;font-size: 10px;&quot;&gt;descriptions&lt;/font&gt;" style="ellipse;whiteSpace=wrap;html=1;align=center;fontStyle=1" parent="1" vertex="1">
          <mxGeometry x="571.2900000000001" y="176.17" width="70" height="20" as="geometry" />
        </mxCell>
        <mxCell id="qRsQ-N_CKGC5OnTErh9l-138" value="" style="endArrow=none;html=1;rounded=0;entryX=0.017;entryY=0.672;entryDx=0;entryDy=0;entryPerimeter=0;exitX=1;exitY=0.25;exitDx=0;exitDy=0;fontStyle=1" parent="1" source="qRsQ-N_CKGC5OnTErh9l-9" target="qRsQ-N_CKGC5OnTErh9l-137" edge="1">
          <mxGeometry relative="1" as="geometry">
            <mxPoint x="581.33" y="216" as="sourcePoint" />
            <mxPoint x="703.7900000000001" y="230.17" as="targetPoint" />
          </mxGeometry>
        </mxCell>
        <mxCell id="qRsQ-N_CKGC5OnTErh9l-139" value="&lt;font style=&quot;font-size: 10px;&quot;&gt;comments&lt;/font&gt;" style="ellipse;whiteSpace=wrap;html=1;align=center;fontStyle=1" parent="1" vertex="1">
          <mxGeometry x="344.04" y="142" width="57" height="20" as="geometry" />
        </mxCell>
        <mxCell id="qRsQ-N_CKGC5OnTErh9l-140" value="" style="endArrow=none;html=1;rounded=0;entryX=0.333;entryY=1;entryDx=0;entryDy=0;entryPerimeter=0;exitX=0.651;exitY=-0.025;exitDx=0;exitDy=0;exitPerimeter=0;fontStyle=1" parent="1" source="qRsQ-N_CKGC5OnTErh9l-8" target="qRsQ-N_CKGC5OnTErh9l-139" edge="1">
          <mxGeometry relative="1" as="geometry">
            <mxPoint x="360" y="179" as="sourcePoint" />
            <mxPoint x="467.26" y="191.17" as="targetPoint" />
          </mxGeometry>
        </mxCell>
        <mxCell id="qRsQ-N_CKGC5OnTErh9l-141" value="&lt;span style=&quot;font-size: 10px;&quot;&gt;comments&lt;/span&gt;" style="ellipse;whiteSpace=wrap;html=1;align=center;fontStyle=1" parent="1" vertex="1">
          <mxGeometry x="506.20000000000005" y="237.66" width="70" height="20" as="geometry" />
        </mxCell>
        <mxCell id="qRsQ-N_CKGC5OnTErh9l-142" value="" style="endArrow=none;html=1;rounded=0;entryX=0.459;entryY=0.036;entryDx=0;entryDy=0;exitX=0.5;exitY=1;exitDx=0;exitDy=0;entryPerimeter=0;fontStyle=1" parent="1" source="qRsQ-N_CKGC5OnTErh9l-9" target="qRsQ-N_CKGC5OnTErh9l-141" edge="1">
          <mxGeometry relative="1" as="geometry">
            <mxPoint x="590" y="222.34" as="sourcePoint" />
            <mxPoint x="733.7900000000001" y="251.51" as="targetPoint" />
          </mxGeometry>
        </mxCell>
        <mxCell id="qRsQ-N_CKGC5OnTErh9l-143" value="&lt;span style=&quot;border-bottom: 1px dotted&quot;&gt;&lt;font style=&quot;font-size: 8px;&quot;&gt;student&lt;/font&gt;&lt;/span&gt;" style="ellipse;whiteSpace=wrap;html=1;align=center;fontStyle=1" parent="1" vertex="1">
          <mxGeometry x="700" y="144.33999999999997" width="50" height="27.66" as="geometry" />
        </mxCell>
        <mxCell id="qRsQ-N_CKGC5OnTErh9l-144" value="" style="endArrow=none;html=1;rounded=0;exitX=0.5;exitY=1;exitDx=0;exitDy=0;entryX=0.308;entryY=-0.017;entryDx=0;entryDy=0;entryPerimeter=0;fontStyle=1" parent="1" source="qRsQ-N_CKGC5OnTErh9l-143" target="qRsQ-N_CKGC5OnTErh9l-4" edge="1">
          <mxGeometry relative="1" as="geometry">
            <mxPoint x="695.13" y="252.82999999999996" as="sourcePoint" />
            <mxPoint x="772.3" y="295.16999999999996" as="targetPoint" />
          </mxGeometry>
        </mxCell>
        <mxCell id="qRsQ-N_CKGC5OnTErh9l-145" value="" style="endArrow=none;html=1;rounded=0;entryX=0.72;entryY=0.96;entryDx=0;entryDy=0;exitX=0.119;exitY=0.036;exitDx=0;exitDy=0;exitPerimeter=0;entryPerimeter=0;fontStyle=1" parent="1" source="qRsQ-N_CKGC5OnTErh9l-4" target="qRsQ-N_CKGC5OnTErh9l-146" edge="1">
          <mxGeometry relative="1" as="geometry">
            <mxPoint x="720" y="200" as="sourcePoint" />
            <mxPoint x="723.26" y="364.41" as="targetPoint" />
          </mxGeometry>
        </mxCell>
        <mxCell id="qRsQ-N_CKGC5OnTErh9l-146" value="&lt;font style=&quot;font-size: 10px;&quot;&gt;ID&lt;/font&gt;" style="ellipse;whiteSpace=wrap;html=1;align=center;fontStyle=5;" parent="1" vertex="1">
          <mxGeometry x="676.74" y="156.17000000000002" width="23.26" height="20" as="geometry" />
        </mxCell>
        <mxCell id="qRsQ-N_CKGC5OnTErh9l-152" value="&lt;font style=&quot;font-size: 10px;&quot;&gt;username&lt;/font&gt;" style="ellipse;whiteSpace=wrap;html=1;align=center;fontStyle=1" parent="1" vertex="1">
          <mxGeometry x="780" y="167.65999999999997" width="50" height="22.34" as="geometry" />
        </mxCell>
        <mxCell id="qRsQ-N_CKGC5OnTErh9l-153" value="" style="endArrow=none;html=1;rounded=0;entryX=0.219;entryY=0.953;entryDx=0;entryDy=0;exitX=0.672;exitY=-0.024;exitDx=0;exitDy=0;exitPerimeter=0;entryPerimeter=0;fontStyle=1" parent="1" source="qRsQ-N_CKGC5OnTErh9l-4" target="qRsQ-N_CKGC5OnTErh9l-152" edge="1">
          <mxGeometry relative="1" as="geometry">
            <mxPoint x="660" y="349.67" as="sourcePoint" />
            <mxPoint x="750" y="399.92" as="targetPoint" />
          </mxGeometry>
        </mxCell>
        <mxCell id="qRsQ-N_CKGC5OnTErh9l-154" value="" style="endArrow=none;html=1;rounded=0;entryX=0.5;entryY=1;entryDx=0;entryDy=0;exitX=0.5;exitY=0;exitDx=0;exitDy=0;fontStyle=1" parent="1" source="qRsQ-N_CKGC5OnTErh9l-4" target="qRsQ-N_CKGC5OnTErh9l-155" edge="1">
          <mxGeometry relative="1" as="geometry">
            <mxPoint x="660" y="354.67" as="sourcePoint" />
            <mxPoint x="760" y="432.84000000000003" as="targetPoint" />
          </mxGeometry>
        </mxCell>
        <mxCell id="qRsQ-N_CKGC5OnTErh9l-155" value="&lt;font style=&quot;font-size: 10px;&quot;&gt;password&lt;/font&gt;" style="ellipse;whiteSpace=wrap;html=1;align=center;fontStyle=1" parent="1" vertex="1">
          <mxGeometry x="750" y="132" width="50" height="20" as="geometry" />
        </mxCell>
        <mxCell id="qRsQ-N_CKGC5OnTErh9l-156" value="&lt;span style=&quot;border-bottom: 1px dotted&quot;&gt;&lt;font style=&quot;font-size: 8px;&quot;&gt;weeks&lt;/font&gt;&lt;/span&gt;" style="ellipse;whiteSpace=wrap;html=1;align=center;fontStyle=1" parent="1" vertex="1">
          <mxGeometry x="780" y="237.6600000000001" width="50" height="30" as="geometry" />
        </mxCell>
        <mxCell id="qRsQ-N_CKGC5OnTErh9l-157" value="" style="endArrow=none;html=1;rounded=0;exitX=0;exitY=0;exitDx=0;exitDy=0;entryX=0.701;entryY=1.015;entryDx=0;entryDy=0;entryPerimeter=0;fontStyle=1" parent="1" source="qRsQ-N_CKGC5OnTErh9l-156" target="qRsQ-N_CKGC5OnTErh9l-4" edge="1">
          <mxGeometry relative="1" as="geometry">
            <mxPoint x="740.13" y="337.24999999999994" as="sourcePoint" />
            <mxPoint x="700" y="417.42" as="targetPoint" />
          </mxGeometry>
        </mxCell>
        <mxCell id="qRsQ-N_CKGC5OnTErh9l-158" value="organization" style="rounded=1;arcSize=10;whiteSpace=wrap;html=1;align=center;fontStyle=1" parent="1" vertex="1">
          <mxGeometry x="623.23" y="336.17" width="73.8" height="22.66" as="geometry" />
        </mxCell>
        <mxCell id="qRsQ-N_CKGC5OnTErh9l-160" value="" style="endArrow=none;html=1;rounded=0;exitX=1;exitY=0.5;exitDx=0;exitDy=0;entryX=0;entryY=0.5;entryDx=0;entryDy=0;fontStyle=1" parent="1" source="qRsQ-N_CKGC5OnTErh9l-3" target="qRsQ-N_CKGC5OnTErh9l-158" edge="1">
          <mxGeometry relative="1" as="geometry">
            <mxPoint x="500" y="450" as="sourcePoint" />
            <mxPoint x="660" y="450" as="targetPoint" />
          </mxGeometry>
        </mxCell>
        <mxCell id="qRsQ-N_CKGC5OnTErh9l-161" value="1" style="resizable=0;html=1;whiteSpace=wrap;align=left;verticalAlign=bottom;fontStyle=1" parent="qRsQ-N_CKGC5OnTErh9l-160" connectable="0" vertex="1">
          <mxGeometry x="-1" relative="1" as="geometry">
            <mxPoint x="177" y="1" as="offset" />
          </mxGeometry>
        </mxCell>
        <mxCell id="qRsQ-N_CKGC5OnTErh9l-164" value="have" style="shape=rhombus;perimeter=rhombusPerimeter;whiteSpace=wrap;html=1;align=center;rotation=0;fontStyle=1" parent="1" vertex="1">
          <mxGeometry x="729.33" y="330.32" width="61.34" height="32.34" as="geometry" />
        </mxCell>
        <mxCell id="qRsQ-N_CKGC5OnTErh9l-165" value="" style="endArrow=none;html=1;rounded=0;exitX=0.5;exitY=0;exitDx=0;exitDy=0;entryX=0.5;entryY=1;entryDx=0;entryDy=0;fontStyle=1" parent="1" source="qRsQ-N_CKGC5OnTErh9l-164" target="qRsQ-N_CKGC5OnTErh9l-4" edge="1">
          <mxGeometry relative="1" as="geometry">
            <mxPoint x="650.0000000000002" y="408.14" as="sourcePoint" />
            <mxPoint x="756.9000000000001" y="222.33999999999997" as="targetPoint" />
          </mxGeometry>
        </mxCell>
        <mxCell id="qRsQ-N_CKGC5OnTErh9l-166" value="M" style="resizable=0;html=1;whiteSpace=wrap;align=right;verticalAlign=bottom;fontStyle=1" parent="qRsQ-N_CKGC5OnTErh9l-165" connectable="0" vertex="1">
          <mxGeometry x="1" relative="1" as="geometry">
            <mxPoint x="-7" y="25" as="offset" />
          </mxGeometry>
        </mxCell>
        <mxCell id="qRsQ-N_CKGC5OnTErh9l-167" value="" style="endArrow=none;html=1;rounded=0;exitX=0;exitY=0.5;exitDx=0;exitDy=0;entryX=1;entryY=0.5;entryDx=0;entryDy=0;fontStyle=1" parent="1" source="qRsQ-N_CKGC5OnTErh9l-164" target="qRsQ-N_CKGC5OnTErh9l-158" edge="1">
          <mxGeometry relative="1" as="geometry">
            <mxPoint x="440" y="430" as="sourcePoint" />
            <mxPoint x="600" y="430" as="targetPoint" />
          </mxGeometry>
        </mxCell>
        <mxCell id="qRsQ-N_CKGC5OnTErh9l-172" value="&lt;font style=&quot;font-size: 10px;&quot;&gt;ID&lt;/font&gt;" style="ellipse;whiteSpace=wrap;html=1;align=center;fontStyle=5;" parent="1" vertex="1">
          <mxGeometry x="656.74" y="273.83" width="23.26" height="20" as="geometry" />
        </mxCell>
        <mxCell id="qRsQ-N_CKGC5OnTErh9l-173" value="" style="endArrow=none;html=1;rounded=0;entryX=0.278;entryY=1.035;entryDx=0;entryDy=0;entryPerimeter=0;exitX=0.35;exitY=-0.06;exitDx=0;exitDy=0;exitPerimeter=0;fontStyle=1" parent="1" source="qRsQ-N_CKGC5OnTErh9l-158" target="qRsQ-N_CKGC5OnTErh9l-172" edge="1">
          <mxGeometry relative="1" as="geometry">
            <mxPoint x="660" y="336" as="sourcePoint" />
            <mxPoint x="783.26" y="519.4000000000001" as="targetPoint" />
          </mxGeometry>
        </mxCell>
        <mxCell id="qRsQ-N_CKGC5OnTErh9l-175" value="&lt;span style=&quot;border-bottom: 1px dotted&quot;&gt;&lt;font style=&quot;font-size: 8px;&quot;&gt;department(host_sup)&lt;/font&gt;&lt;/span&gt;" style="ellipse;whiteSpace=wrap;html=1;align=center;fontStyle=1" parent="1" vertex="1">
          <mxGeometry x="547.8599999999999" y="273.8299999999999" width="90" height="30" as="geometry" />
        </mxCell>
        <mxCell id="qRsQ-N_CKGC5OnTErh9l-176" value="" style="endArrow=none;html=1;rounded=0;exitX=0.615;exitY=0.998;exitDx=0;exitDy=0;exitPerimeter=0;entryX=0;entryY=0;entryDx=0;entryDy=0;fontStyle=1" parent="1" source="qRsQ-N_CKGC5OnTErh9l-175" target="qRsQ-N_CKGC5OnTErh9l-158" edge="1">
          <mxGeometry relative="1" as="geometry">
            <mxPoint x="760.13" y="444.24999999999994" as="sourcePoint" />
            <mxPoint x="630" y="340" as="targetPoint" />
          </mxGeometry>
        </mxCell>
        <mxCell id="qRsQ-N_CKGC5OnTErh9l-178" value="&lt;font style=&quot;font-size: 10px;&quot;&gt;name&lt;/font&gt;" style="ellipse;whiteSpace=wrap;html=1;align=center;fontStyle=1" parent="1" vertex="1">
          <mxGeometry x="690" y="277.66" width="50" height="22.34" as="geometry" />
        </mxCell>
        <mxCell id="qRsQ-N_CKGC5OnTErh9l-179" value="" style="endArrow=none;html=1;rounded=0;entryX=0.332;entryY=0.923;entryDx=0;entryDy=0;exitX=0.798;exitY=-0.002;exitDx=0;exitDy=0;exitPerimeter=0;entryPerimeter=0;fontStyle=1" parent="1" source="qRsQ-N_CKGC5OnTErh9l-158" target="qRsQ-N_CKGC5OnTErh9l-178" edge="1">
          <mxGeometry relative="1" as="geometry">
            <mxPoint x="680.0028" y="503.6853999999999" as="sourcePoint" />
            <mxPoint x="701.54" y="517.6626399999999" as="targetPoint" />
          </mxGeometry>
        </mxCell>
      </root>
    </mxGraphModel>
  </diagram>
</mxfile>
